<?xml version="1.0" encoding="utf-8"?>
<!-- Generator: Adobe Illustrator 16.0.0, SVG Export Plug-In . SVG Version: 6.00 Build 0)  -->
<!DOCTYPE svg PUBLIC "-//W3C//DTD SVG 1.1//EN" "http://www.w3.org/Graphics/SVG/1.1/DTD/svg11.dtd">
<svg version="1.1" id="图层_1" xmlns="http://www.w3.org/2000/svg" xmlns:xlink="http://www.w3.org/1999/xlink" x="0px" y="0px"
	 width="1254px" height="1048px" viewBox="0 0 1254 1048" enable-background="new 0 0 1254 1048" xml:space="preserve">
<g>
	<g>
		<polygon fill="#B81C22" points="664.515,204.167 665.036,205.667 833.583,144.332 833.583,592.166 730.993,546.142 
			730.384,546.925 836.187,605.324 864.118,597.931 864.118,141.123 864.118,138.099 860.946,137.358 836.755,131.73 
			834.126,131.125 		"/>
		<polygon fill="#003557" points="493.325,144.332 493.325,581.553 660.985,514.15 660.985,204.674 		"/>
		<path fill="#B81C22" d="M778.417,253.988c-0.955,1.636-2.658,2.783-4.707,2.783c-3.049,0-5.531-2.469-5.531-5.529
			s2.482-5.529,5.531-5.529c1.098,0,2.055,0.395,2.912,0.938l10.379-3.543v-19.303l-3.27-3.518l-19.723,8.047l-3.592,5.012v46.852
			l2.9,2l20.82-8.504l2.863-3.888v-18.754L778.417,253.988z"/>
		<path fill="#B81C22" d="M801.382,246.113l-14.381,4.924v1.297l14.381-4.913c1.764-0.604,2.727-2.395,2.43-4.171
			C803.565,244.533,802.714,245.668,801.382,246.113z"/>
		<path fill="#B81C22" d="M778.235,491.471c-1.744,0.836-3.867,0.756-5.563-0.438c-2.506-1.753-3.123-5.196-1.371-7.702
			c1.754-2.505,5.197-3.122,7.715-1.369c0.92,0.639,1.578,1.513,1.967,2.483l5.674,1.636v-18.721l-2.791-4.739l-20.043-6.801
			l-3.406,2.086v47.346l2.615,3.863l20.736,7.048l2.889-1.457v-20.806L778.235,491.471z"/>
		<path fill="#B81C22" d="M801.528,498.184l-15.672-4.52l-0.752,1.061l15.684,4.508c1.803,0.519,3.604-0.395,4.383-2.023
			C804.231,498.121,802.874,498.566,801.528,498.184z"/>
	</g>
	<polygon fill="#B81C22" points="328.535,797.867 294.148,797.867 284.751,788.461 284.751,688.316 294.148,678.915 
		326.926,678.915 339.17,691.165 351.063,680.386 333.584,662.915 287.49,662.915 267.513,682.887 267.513,793.895 287.49,813.861 
		332.598,813.861 356.74,800.808 348.9,786.988 	"/>
	<polygon fill="#B81C22" points="543.119,703.995 523.232,725.485 523.232,792.379 543.119,813.861 569.23,813.861 594.412,800.059 
		587.713,786.65 565.531,798.895 549.744,798.895 539.236,787.518 539.236,730.34 549.744,718.968 570.445,718.968 579.1,728.295 
		579.1,745.898 553.006,745.898 553.072,760.87 595.104,760.87 595.104,723.428 577.061,703.995 	"/>
	<polygon fill="#B81C22" points="1034.246,694.487 1023.396,684.026 972.605,737.618 972.605,656.752 956.604,656.752 
		956.604,813.861 972.605,813.861 972.605,759.536 987.344,743.977 1020.465,816.502 1033.926,810.17 998.521,732.188 	"/>
	<polygon fill="#B81C22" points="1053.102,703.995 1033.217,725.485 1033.217,792.379 1053.102,813.861 1079.213,813.861 
		1104.396,800.059 1097.695,786.65 1075.514,798.895 1059.729,798.895 1049.219,787.518 1049.219,730.34 1059.729,718.968 
		1080.43,718.968 1089.078,728.295 1089.078,745.898 1062.979,745.898 1063.072,760.87 1105.088,760.87 1105.088,723.428 
		1087.047,703.995 	"/>
	<path fill="#B81C22" d="M374.686,703.995l-8.99,9.867l-6.777,7.311v73.671l17.633,19.018h32.904l17.641-19.018v-73.886
		l-15.785-16.963H374.686z M383.172,798.895l-8.252-8.914l0.008-63.946l6.535-7.066h23.23l6.393,6.864v64.148l-8.25,8.914H383.172z"
		/>
	<polygon fill="#B81C22" points="883.033,703.995 876.912,710.613 868.693,719.017 868.693,813.861 884.695,813.861 
		884.695,724.205 889.637,718.968 916.725,718.968 925.588,728.499 925.588,813.861 941.588,813.861 941.588,723.63 
		923.338,703.995 	"/>
	<polygon fill="#B81C22" points="838.293,792.396 834.121,796.736 832.1,798.895 805.234,798.895 796.984,789.98 796.984,703.995 
		780.982,703.995 780.982,794.844 798.615,813.861 838.717,813.861 844.783,807.302 848.912,803.282 854.291,795.591 
		854.291,703.995 838.293,703.995 	"/>
	<path fill="#B81C22" d="M494.883,713.288l-1.6-1.584l-7.234-7.709h-28.783l-17.84,19.225v71.216l18.043,19.426h28.162
		l19.816-10.869l5.256-2.689l0.188-8.302V656.752h-16.008V713.288z M464.088,798.895l-8.662-9.33v-61.477l8.455-9.12h15.59
		l15.412,16.353v56.414l-12.951,7.16H464.088z"/>
	<polygon fill="#B81C22" points="621.986,703.995 615.92,710.559 606.41,719.86 606.41,813.861 622.42,813.861 622.42,725.108 
		626.373,721.335 628.596,718.968 640.078,718.968 653.162,732.967 664.158,722.759 646.688,703.995 	"/>
	<polygon fill="#B81C22" points="1157.275,703.995 1132.574,703.995 1126.51,710.559 1116.998,719.86 1116.998,813.861 
		1133.01,813.861 1133.01,725.108 1136.959,721.335 1139.186,718.968 1150.664,718.968 1163.748,732.967 1174.744,722.759 	"/>
	<path fill="#B81C22" d="M744.15,715.086h-0.221l3.559-3.556V682.27l-19.359-19.354h-27.814h-7.258h-17.234v130.892l19.977,20.055
		h47.566l27.125-14.584v-57.853L744.15,715.086z M721.473,678.915l8.779,8.789v18.372l-9.176,9.01h-28.02v-36.169L721.473,678.915z
		 M753.26,790.461l-13.947,7.406h-36.855l-9.4-9.406v-57.377h44.438l15.766,15.771V790.461z"/>
	<path fill="#B81C22" d="M254.967,723.053v-15.591h-23.354l13.437-41.133l-15.306-4.474l-14.935,45.606h-21.564l13.176-40.725
		l-15.298-4.475l-14.669,45.199h-28.488v15.591h23.427l-9.608,29.598h-29.63v15.589h24.568l-13.366,41.182l15.212,5.19
		l15.009-46.372h21.329l-13.553,41.386l15.201,5.19l15.211-46.576h27.385V752.65h-22.292l9.664-29.598H254.967z M200.01,752.65
		h-21.392l9.578-29.598h21.508L200.01,752.65z"/>
</g>
</svg>
